<?xml version="1.0" encoding="UTF-8" standalone="no"?>
<svg
   xmlns:dc="http://purl.org/dc/elements/1.1/"
   xmlns:cc="http://creativecommons.org/ns#"
   xmlns:rdf="http://www.w3.org/1999/02/22-rdf-syntax-ns#"
   xmlns:svg="http://www.w3.org/2000/svg"
   xmlns="http://www.w3.org/2000/svg"
   id="svg8"
   version="1.1"
   viewBox="0 0 58.737499 10.583334"
   height="40"
   width="222">
  <defs
     id="defs2" />
  <metadata
     id="metadata5">
    <rdf:RDF>
      <cc:Work
         rdf:about="">
        <dc:format>image/svg+xml</dc:format>
        <dc:type
           rdf:resource="http://purl.org/dc/dcmitype/StillImage" />
        <dc:title></dc:title>
      </cc:Work>
    </rdf:RDF>
  </metadata>
  <g
     transform="translate(0,-286.41665)"
     id="layer1">
    <g
       transform="matrix(0.95359878,0,0,0.79298039,-1.085352,60.778989)"
       id="text848"
       style="font-style:normal;font-weight:normal;font-size:10.58333302px;line-height:1.25;font-family:sans-serif;letter-spacing:0px;word-spacing:0px;fill:#ffffff;fill-opacity:1;stroke:none;stroke-width:0.26458332"
       aria-label="Renan Delgado">
      <path
         id="path854"
         style="font-style:normal;font-variant:normal;font-weight:normal;font-stretch:normal;font-family:Mattilda;-inkscape-font-specification:Mattilda;fill:#ffffff;fill-opacity:1;stroke-width:0.26458332"
         d="m 6.8872051,292.03207 c 0,0 -1.6933332,-1.04775 -2.9527499,-2.75167 0.53975,-0.1905 1.8203333,-0.73025 2.7622499,-1.67217 0.3280834,-0.37041 0.635,-0.83608 0.635,-1.43933 0,-0.5715 -0.508,-0.84667 -1.2170833,-0.84667 -0.9419166,0 -2.2224999,0.47625 -3.1220832,1.37584 -0.1799167,0.17991 -0.254,0.3175 -0.254,0.40216 0,0.0635 0.03175,0.0952 0.09525,0.0952 0.0635,0 0.1693333,-0.0529 0.2751667,-0.15875 0.3069166,-0.30691 0.8043333,-0.5715 1.3229166,-0.762 -0.73025,0.99484 -1.8309166,2.82575 -1.8309166,2.82575 -0.6455833,1.05834 -1.1853333,2.33892 -1.1853333,2.61409 0,0.51858 0.47625,1.016 0.9842499,1.016 l -0.052917,-0.45509 c 0,0 0.2645833,-0.9525 0.8678333,-2.06375 0.8466666,1.09009 2.4553332,2.52942 2.8151666,2.62467 0.074083,0.0212 0.15875,0.0317 0.2434166,0.0317 0.4656667,0 0.98425,-0.28575 1.11125,-0.74083 z m -2.4235832,-3.81 c 0.4868333,-0.86784 0.4656666,-0.79375 0.92075,-1.43934 l 0.010583,-0.0317 c 0.1905,-0.27516 0.3915833,-0.59266 0.508,-0.77258 0.3704166,0.0106 0.6244166,0.11642 0.6244166,0.34925 0,0.79375 -1.3017499,1.88383 -2.3812499,2.39183 z" />
      <path
         id="path856"
         style="font-style:normal;font-variant:normal;font-weight:normal;font-stretch:normal;font-family:Mattilda;-inkscape-font-specification:Mattilda;fill:#ffffff;fill-opacity:1;stroke-width:0.26458332"
         d="m 13.134348,288.68773 c 0,0 -0.6985,0.0847 -3.3019998,2.54 0,0 -0.0635,0.0847 -0.1481667,0.16934 l -0.381,0.46566 c 0,0.127 -0.1799167,0.17992 -0.1799167,0.17992 -0.0635,0 -0.1164166,0.0635 -0.1481666,0.0635 -0.052917,0 -0.084667,-0.0635 -0.084667,-0.13758 0,-0.23284 0.254,-0.71967 0.6561667,-1.56634 2.0637501,-0.45508 2.4130001,-1.75683 2.4235831,-1.74625 0.08467,-0.17991 0.116417,-0.32808 0.116417,-0.45508 0,-0.55033 -0.645583,-0.70908 -0.656167,-0.70908 -0.08467,-0.0212 -0.179916,-0.0318 -0.264583,-0.0318 -0.846667,0 -1.7462501,0.96308 -2.6775834,2.70933 -0.41275,0.77258 -0.5820833,1.35467 -0.5820833,1.76742 0,0.56091 0.3174999,0.81491 0.7302499,0.81491 0.4339167,0 0.5926667,-0.0317 1.3969998,-1.0795 0.677334,-0.56091 1.80975,-1.93675 3.280834,-2.36008 z m -1.894417,-0.53975 c 0.04233,-0.0106 0.1905,-0.0318 0.296334,-0.0529 -0.01058,0.17991 -0.05292,0.3175 -0.08467,0.41275 0,0 -0.645583,1.24883 -1.5769165,1.28058 0.5503335,-0.86783 1.3017495,-1.62983 1.3652495,-1.64042 z" />
      <path
         id="path858"
         style="font-style:normal;font-variant:normal;font-weight:normal;font-stretch:normal;font-family:Mattilda;-inkscape-font-specification:Mattilda;fill:#ffffff;fill-opacity:1;stroke-width:0.26458332"
         d="m 18.111491,289.00523 c 0,0 -0.66675,0.20109 -2.804583,3.01625 0.1905,-0.59266 0.867833,-2.49766 2.211917,-3.95816 0,-0.0106 0.01058,-0.4445 -0.66675,-0.61384 -0.01058,0 -0.03175,0 -0.04233,0 -0.1905,0 -0.4445,0.23284 -0.719666,0.59267 -0.497417,0.30692 -1.502834,1.2065 -3.196167,3.77825 0.275167,-0.78317 0.9525,-2.44475 2.159,-3.75708 0,-0.0106 0.01058,-0.4445 -0.677333,-0.61384 -0.02117,0 -0.03175,0 -0.05292,0 -0.740833,0 -2.57175,3.683 -2.57175,4.20159 0,0.55033 0.529167,1.09008 1.058333,1.09008 l -0.02117,-0.14817 c 0.359833,-0.34925 1.217083,-1.74625 2.243666,-2.84691 -0.4445,0.85725 -0.772583,1.64041 -0.772583,1.86266 0,0.43392 0.359833,0.89959 0.772583,1.03717 0,0.0635 0.01058,0.0953 0.08467,0.0953 0.550333,0 1.449917,-2.29658 3.27025,-3.15383 z" />
      <path
         id="path860"
         style="font-style:normal;font-variant:normal;font-weight:normal;font-stretch:normal;font-family:Mattilda;-inkscape-font-specification:Mattilda;fill:#ffffff;fill-opacity:1;stroke-width:0.26458332"
         d="m 23.471619,288.57132 c 0,0 -1.3335,0.635 -3.481917,3.46075 0.179917,-0.5715 0.85725,-2.49767 2.2225,-3.96875 0,0 0.01058,-0.4445 -0.677333,-0.60325 -0.02117,0 -0.03175,-0.0106 -0.05292,-0.0106 -0.148166,0 -0.34925,0.15875 -0.560916,0.41275 -0.306917,-0.46566 -0.762,-0.40216 -0.836084,-0.40216 -0.846666,0 -1.735666,0.9525 -2.667,2.70933 -0.41275,0.77258 -0.582083,1.35467 -0.582083,1.75683 0,0.56092 0.3175,0.81492 0.73025,0.81492 0.370417,0 0.5715,0.0529 1.375833,-1.05833 0.04233,0.41275 0.370417,0.83608 0.772584,0.97366 0,0.0529 0.02117,0.0953 0.08467,0.0953 0.03175,0 0.105834,-0.0529 0.1905,-0.0529 v -0.0106 c 0.53975,-0.35983 2.148417,-2.76225 3.757084,-3.53483 z m -5.609167,3.51366 c -0.03175,-0.0212 -0.04233,-0.0635 -0.04233,-0.11641 0,-0.24342 0.275167,-0.762 0.687917,-1.64042 0.508,-1.0795 1.5875,-2.16958 1.661583,-2.19075 0.04233,0 0.179917,-0.0317 0.28575,-0.0423 0,0.17991 -0.04233,0.3175 -0.08467,0.41275 -0.381,0.81491 -2.06375,3.59833 -2.465916,3.59833 -0.01058,0 -0.03175,-0.0106 -0.04233,-0.0212 z" />
      <path
         id="path862"
         style="font-style:normal;font-variant:normal;font-weight:normal;font-stretch:normal;font-family:Mattilda;-inkscape-font-specification:Mattilda;fill:#ffffff;fill-opacity:1;stroke-width:0.26458332"
         d="m 28.2194,289.00523 c 0,0 -0.66675,0.20109 -2.804583,3.01625 0.1905,-0.59266 0.867834,-2.49766 2.211917,-3.95816 0,-0.0106 0.01058,-0.4445 -0.66675,-0.61384 -0.01058,0 -0.03175,0 -0.04233,0 -0.190499,0 -0.444499,0.23284 -0.719666,0.59267 -0.497417,0.30692 -1.502833,1.2065 -3.196167,3.77825 0.275167,-0.78317 0.9525,-2.44475 2.159,-3.75708 0,-0.0106 0.01058,-0.4445 -0.677333,-0.61384 -0.02117,0 -0.03175,0 -0.05292,0 -0.740833,0 -2.57175,3.683 -2.57175,4.20159 0,0.55033 0.529167,1.09008 1.058334,1.09008 l -0.02117,-0.14817 c 0.359833,-0.34925 1.217083,-1.74625 2.243667,-2.84691 -0.4445,0.85725 -0.772584,1.64041 -0.772584,1.86266 0,0.43392 0.359834,0.89959 0.772584,1.03717 0,0.0635 0.01058,0.0953 0.08467,0.0953 0.550334,0 1.449917,-2.29658 3.27025,-3.15383 z" />
      <path
         id="path864"
         style="font-style:normal;font-variant:normal;font-weight:normal;font-stretch:normal;font-family:Mattilda;-inkscape-font-specification:Mattilda;fill:#ffffff;fill-opacity:1;stroke-width:0.26458332"
         d="m 36.541539,287.01557 c -0.08467,-0.98425 -0.910167,-1.4605 -1.926166,-1.48167 -0.127,-0.13758 -0.275167,-0.1905 -0.402167,-0.1905 -0.243417,0 -0.47625,0.14817 -0.635,0.30692 -0.740833,0.1905 -2.201333,0.9525 -2.201333,1.49225 0,0.0635 0.04233,0.0953 0.09525,0.0953 0.07408,0 0.179916,-0.0529 0.28575,-0.15875 0.296333,-0.29634 0.772583,-0.58209 1.291166,-0.75142 -0.751416,1.03717 -1.756833,2.71992 -1.756833,2.71992 -0.66675,1.13241 -1.2065,2.37066 -1.2065,2.667 0,0.56091 0.529167,1.03716 1.068917,1.03716 1.545166,0 5.397499,-2.68816 5.397499,-5.48216 0,-0.0847 0,-0.16934 -0.01058,-0.254 z m -5.450416,5.09058 c 0.15875,-0.48683 0.645583,-1.82033 1.545166,-3.09033 l 0.560917,-0.86784 c 0.508,-0.889 0.486833,-0.80433 0.931333,-1.47108 l 0.02117,-0.0317 c 0.105833,-0.15875 0.22225,-0.33867 0.3175,-0.48683 0.518583,0.0953 0.889,0.43391 0.889,1.13241 0,2.667 -3.418417,4.77309 -4.265083,4.81542 z" />
      <path
         id="path866"
         style="font-style:normal;font-variant:normal;font-weight:normal;font-stretch:normal;font-family:Mattilda;-inkscape-font-specification:Mattilda;fill:#ffffff;fill-opacity:1;stroke-width:0.26458332"
         d="m 40.522855,288.68773 c 0,0 -0.6985,0.0847 -3.302,2.54 0,0 -0.0635,0.0847 -0.148167,0.16934 l -0.381,0.46566 c 0,0.127 -0.179916,0.17992 -0.179916,0.17992 -0.0635,0 -0.116417,0.0635 -0.148167,0.0635 -0.05292,0 -0.08467,-0.0635 -0.08467,-0.13758 0,-0.23284 0.254,-0.71967 0.656167,-1.56634 2.06375,-0.45508 2.413,-1.75683 2.423583,-1.74625 0.08467,-0.17991 0.116417,-0.32808 0.116417,-0.45508 0,-0.55033 -0.645583,-0.70908 -0.656167,-0.70908 -0.08467,-0.0212 -0.179916,-0.0318 -0.264583,-0.0318 -0.846667,0 -1.74625,0.96308 -2.677583,2.70933 -0.41275,0.77258 -0.582084,1.35467 -0.582084,1.76742 0,0.56091 0.3175,0.81491 0.73025,0.81491 0.433917,0 0.592667,-0.0317 1.397,-1.0795 0.677334,-0.56091 1.80975,-1.93675 3.280834,-2.36008 z m -1.894417,-0.53975 c 0.04233,-0.0106 0.1905,-0.0318 0.296334,-0.0529 -0.01058,0.17991 -0.05292,0.3175 -0.08467,0.41275 0,0 -0.645583,1.24883 -1.576917,1.28058 0.550334,-0.86783 1.30175,-1.62983 1.36525,-1.64042 z" />
      <path
         id="path868"
         style="font-style:normal;font-variant:normal;font-weight:normal;font-stretch:normal;font-family:Mattilda;-inkscape-font-specification:Mattilda;fill:#ffffff;fill-opacity:1;stroke-width:0.26458332"
         d="m 43.489829,284.98357 c -0.486833,0.17991 -2.645833,3.79941 -2.645833,3.79941 -0.719667,1.19592 -1.291167,2.52942 -1.291167,2.8575 0,0.43392 0.359833,0.91017 0.772583,1.05834 0.01058,0.0423 0.03175,0.0529 0.07408,0.0529 0.02117,0 0.04233,0 0.07408,-0.0106 0.05292,0.0106 0.09525,0.0106 0.148167,0.0106 v -0.0847 c 0.560916,-0.39159 1.524,-2.39184 3.164416,-3.175 l -0.28575,-0.60325 c 0,0 -0.66675,0.20108 -2.815166,3.01625 0.1905,-0.60325 0.719666,-1.93675 1.598083,-3.15384 l 0.60325,-0.94191 c 0.53975,-0.9525 0.529167,-0.84667 1.005417,-1.57692 l 0.01058,-0.0212 c 0.306917,-0.45508 0.656167,-0.99483 0.656167,-0.99483 -0.179917,-0.30692 -0.381,-0.41275 -0.582084,-0.41275 -0.179916,0 -0.359833,0.0847 -0.486833,0.17992 z" />
      <path
         id="path870"
         style="font-style:normal;font-variant:normal;font-weight:normal;font-stretch:normal;font-family:Mattilda;-inkscape-font-specification:Mattilda;fill:#ffffff;fill-opacity:1;stroke-width:0.26458332"
         d="m 47.701995,290.59273 c -0.28575,0.16934 -0.486833,0.34925 -1.513416,0.93134 0.105833,-0.15875 1.576916,-2.57175 1.576916,-2.59292 0,0 -0.328083,-1.12183 -0.92075,-1.22767 -0.201083,-0.1905 -0.465666,-0.24341 -0.465666,-0.24341 -0.08467,-0.0212 -0.179917,-0.0317 -0.264584,-0.0317 -0.846666,0 -1.746249,0.96308 -2.677583,2.71991 -0.41275,0.77259 -0.582083,1.35467 -0.582083,1.76742 0,0.56092 0.3175,0.81492 0.73025,0.81492 0.296333,0 0.518583,0 0.9525,-0.508 -0.105833,0.17991 -0.22225,0.35983 -0.338667,0.52916 -1.30175,0.52917 -4.646083,2.64584 -4.646083,3.90525 0,0.29634 0.3175,0.8255 1.121833,0.8255 1.375834,0 3.725334,-2.97391 5.249333,-5.2705 1.386417,-0.75141 1.862667,-1.24883 1.915584,-1.34408 0.02117,-0.0318 0.03175,-0.0953 0.03175,-0.14817 0,-0.0741 -0.02117,-0.14816 -0.09525,-0.14816 -0.02117,0 -0.04233,0.0106 -0.07408,0.0212 z m -7.609416,6.096 c -0.04233,-0.0212 -0.0635,-0.0635 -0.0635,-0.10583 0,-0.61383 3.132667,-2.87867 3.81,-3.06917 -1.121833,1.62984 -2.550583,3.048 -3.7465,3.175 z m 3.788833,-4.62491 c -0.03175,-0.0212 -0.04233,-0.0635 -0.04233,-0.11642 0,-0.23283 0.264583,-0.75142 0.687917,-1.64042 0.508,-1.0795 1.598083,-2.18016 1.661583,-2.19075 0.04233,-0.0106 0.1905,-0.0317 0.296333,-0.0529 0,0.17991 -0.04233,0.32808 -0.08467,0.42333 -0.391583,0.81492 -2.063749,3.59833 -2.476499,3.59833 -0.01058,0 -0.03175,-0.0106 -0.04233,-0.0212 z" />
      <path
         id="path872"
         style="font-style:normal;font-variant:normal;font-weight:normal;font-stretch:normal;font-family:Mattilda;-inkscape-font-specification:Mattilda;fill:#ffffff;fill-opacity:1;stroke-width:0.26458332"
         d="m 54.043395,288.57132 c 0,0 -1.3335,0.635 -3.481916,3.46075 0.179916,-0.5715 0.85725,-2.49767 2.2225,-3.96875 0,0 0.01058,-0.4445 -0.677334,-0.60325 -0.02117,0 -0.03175,-0.0106 -0.05292,-0.0106 -0.148167,0 -0.34925,0.15875 -0.560917,0.41275 -0.306917,-0.46566 -0.762,-0.40216 -0.836083,-0.40216 -0.846667,0 -1.735667,0.9525 -2.667,2.70933 -0.41275,0.77258 -0.582084,1.35467 -0.582084,1.75683 0,0.56092 0.3175,0.81492 0.73025,0.81492 0.370417,0 0.5715,0.0529 1.375834,-1.05833 0.04233,0.41275 0.370416,0.83608 0.772583,0.97366 0,0.0529 0.02117,0.0953 0.08467,0.0953 0.03175,0 0.105833,-0.0529 0.1905,-0.0529 v -0.0106 c 0.53975,-0.35983 2.148416,-2.76225 3.757083,-3.53483 z m -5.609166,3.51366 c -0.03175,-0.0212 -0.04233,-0.0635 -0.04233,-0.11641 0,-0.24342 0.275167,-0.762 0.687917,-1.64042 0.508,-1.0795 1.5875,-2.16958 1.661583,-2.19075 0.04233,0 0.179917,-0.0317 0.28575,-0.0423 0,0.17991 -0.04233,0.3175 -0.08467,0.41275 -0.381,0.81491 -2.06375,3.59833 -2.465917,3.59833 -0.01058,0 -0.03175,-0.0106 -0.04233,-0.0212 z" />
      <path
         id="path874"
         style="font-style:normal;font-variant:normal;font-weight:normal;font-stretch:normal;font-family:Mattilda;-inkscape-font-specification:Mattilda;fill:#ffffff;fill-opacity:1;stroke-width:0.26458332"
         d="m 59.733589,287.65057 c -0.02117,0 -1.068916,-0.0317 -3.894666,4.30741 0,0 -0.03175,0.0529 -0.0635,0.13759 0.137583,-0.4445 0.66675,-2.02142 1.661583,-3.34434 l 0.60325,-0.94191 c -0.01058,0 -0.01058,0 -0.01058,0 0.5715,-0.9525 0.529166,-0.84667 1.005416,-1.57692 l 0.02117,-0.0212 c 0.296333,-0.45508 0.656167,-0.99483 0.656167,-0.99483 -0.179917,-0.30692 -0.391584,-0.41275 -0.592667,-0.41275 -0.179917,0 -0.34925,0.0847 -0.486833,0.17992 -0.328084,0.127 -1.42875,1.8415 -2.0955,2.921 -0.338667,-0.4445 -0.656167,-0.45509 -0.867834,-0.45509 -0.836083,0 -1.74625,0.96309 -2.677583,2.70934 -0.41275,0.77258 -0.582083,1.36525 -0.582083,1.76741 0,0.56092 0.3175,0.81492 0.73025,0.81492 0.486833,0 0.709083,-0.10583 1.61925,-1.397 -0.03175,0.11642 -0.05292,0.20108 -0.05292,0.254 0,0.56092 0.497417,1.15358 1.068917,1.15358 l -0.01058,-0.0847 c 0.486834,-0.32809 2.402417,-3.75709 4.2545,-4.41325 z m -6.297083,4.43441 c -0.03175,-0.0212 -0.04233,-0.0635 -0.04233,-0.11641 0,-0.23284 0.264583,-0.75142 0.687916,-1.64042 0.508,-1.0795 1.598084,-2.18017 1.672167,-2.19075 0.04233,-0.0106 0.179917,-0.0317 0.28575,-0.0529 0,0.17992 -0.04233,0.3175 -0.08467,0.41275 -0.381,0.81492 -2.06375,3.60892 -2.4765,3.60892 -0.01058,0 -0.03175,-0.0106 -0.04233,-0.0212 z" />
      <path
         id="path876"
         style="font-style:normal;font-variant:normal;font-weight:normal;font-stretch:normal;font-family:Mattilda;-inkscape-font-specification:Mattilda;fill:#ffffff;fill-opacity:1;stroke-width:0.26458332"
         d="m 62.456318,289.19573 -0.529166,-0.39158 c -0.4445,0.61383 -1.0795,1.06892 -1.693333,1.43933 0.306916,-0.47625 0.529166,-0.84666 0.5715,-0.93133 l 0.137583,-0.21167 c 0.264583,-0.37041 0.370416,-0.65616 0.370416,-0.87841 0,-0.53975 -0.560916,-0.6985 -0.656166,-0.71967 -0.08467,-0.0212 -0.179917,-0.0318 -0.264583,-0.0318 -0.836084,0 -1.74625,0.96308 -2.677584,2.70933 -0.41275,0.77259 -0.5715,1.35467 -0.5715,1.76742 0,0.56092 0.306917,0.81492 0.719667,0.81492 0.550333,0 0.846667,-0.27517 1.830917,-1.69334 2.497666,-1.35466 2.762249,-1.87325 2.762249,-1.87325 z m -1.989666,-1.03716 c 0.04233,-0.0106 0.1905,-0.0317 0.296333,-0.0529 -0.03175,0.43392 -0.592666,1.40758 -1.354666,2.58233 -0.423334,0.21167 -0.79375,0.39159 -1.026584,0.55034 0.116417,-0.24342 0.254,-0.53975 0.423334,-0.889 0.508,-1.0795 1.598083,-2.18017 1.661583,-2.19075 z m -2.307167,3.937 c -0.02117,-0.0212 -0.04233,-0.0635 -0.04233,-0.10584 0,-0.0847 0.03175,-0.1905 0.08467,-0.32808 0.01058,0 0.02117,0 0.04233,0 0.179917,0 0.486833,-0.10583 0.592667,-0.14817 -0.275167,0.35984 -0.508,0.60325 -0.624417,0.60325 -0.02117,0 -0.04233,-0.0106 -0.05292,-0.0212 z" />
    </g>
    <rect
       ry="0.11510386"
       y="293.43771"
       x="0.67399627"
       height="0.23020771"
       width="57.321724"
       id="rect879"
       style="opacity:1;fill:#ffffff;fill-opacity:1;stroke:none;stroke-width:0.39687499;stroke-linecap:round;stroke-linejoin:round;stroke-miterlimit:4;stroke-dasharray:none;stroke-dashoffset:0;stroke-opacity:0.99684544;paint-order:stroke markers fill" />
  </g>
</svg>
