<?xml version="1.0" encoding="UTF-8" standalone="no"?>
<!-- Created with Inkscape (http://www.inkscape.org/) -->

<svg
   xmlns:dc="http://purl.org/dc/elements/1.1/"
   xmlns:cc="http://creativecommons.org/ns#"
   xmlns:rdf="http://www.w3.org/1999/02/22-rdf-syntax-ns#"
   xmlns:svg="http://www.w3.org/2000/svg"
   xmlns="http://www.w3.org/2000/svg"
   xmlns:sodipodi="http://sodipodi.sourceforge.net/DTD/sodipodi-0.dtd"
   xmlns:inkscape="http://www.inkscape.org/namespaces/inkscape"
   width="200"
   height="30"
   viewBox="0 0 63.499999 10.583334"
   version="1.1"
   id="svg8"
   inkscape:version="0.92.3 (unknown)"
   sodipodi:docname="renan-cog.svg">
  <defs
     id="defs2" />
  <sodipodi:namedview
     id="base"
     pagecolor="#ffffff"
     bordercolor="#666666"
     borderopacity="1.0"
     inkscape:pageopacity="0.0"
     inkscape:pageshadow="2"
     inkscape:zoom="2.6147579"
     inkscape:cx="111.42857"
     inkscape:cy="12.857143"
     inkscape:document-units="mm"
     inkscape:current-layer="layer1"
     showgrid="false"
     units="px"
     inkscape:lockguides="true"
     inkscape:window-width="1366"
     inkscape:window-height="662"
     inkscape:window-x="0"
     inkscape:window-y="27"
     inkscape:window-maximized="1" />
  <metadata
     id="metadata5">
    <rdf:RDF>
      <cc:Work
         rdf:about="">
        <dc:format>image/svg+xml</dc:format>
        <dc:type
           rdf:resource="http://purl.org/dc/dcmitype/StillImage" />
        <dc:title></dc:title>
      </cc:Work>
    </rdf:RDF>
  </metadata>
  <g
     inkscape:label="Camada 1"
     inkscape:groupmode="layer"
     id="layer1"
     transform="translate(0,-286.41665)">
    <g
       id="g922"
       transform="matrix(0.02276236,0,0,0.02276236,26.272682,286.75814)"
       style="fill:#0dcee5;fill-opacity:1">
      <path
         inkscape:connector-curvature="0"
         d="m 436.25,181.438 c -1.529,-2.002 -3.524,-3.193 -5.995,-3.571 l -52.249,-7.992 c -2.854,-9.137 -6.756,-18.461 -11.704,-27.98 3.422,-4.758 8.559,-11.466 15.41,-20.129 6.851,-8.661 11.703,-14.987 14.561,-18.986 1.523,-2.094 2.279,-4.281 2.279,-6.567 0,-2.663 -0.66,-4.755 -1.998,-6.28 -6.848,-9.708 -22.552,-25.885 -47.106,-48.536 -2.275,-1.903 -4.661,-2.854 -7.132,-2.854 -2.857,0 -5.14,0.855 -6.854,2.567 L 294.923,71.659 C 287.117,67.66 278.552,64.139 269.23,61.094 L 261.236,8.565 C 261.045,6.091 259.949,4.044 257.951,2.426 255.95,0.806 253.623,0 250.954,0 h -63.38 c -5.52,0 -8.947,2.663 -10.278,7.993 -2.475,9.513 -5.236,27.214 -8.28,53.1 -8.947,2.86 -17.607,6.476 -25.981,10.853 L 103.636,41.397 c -2.474,-1.903 -4.948,-2.854 -7.422,-2.854 -4.187,0 -13.179,6.804 -26.979,20.413 -13.8,13.612 -23.169,23.841 -28.122,30.69 -1.714,2.474 -2.568,4.664 -2.568,6.567 0,2.286 0.95,4.57 2.853,6.851 12.751,15.42 22.936,28.549 30.55,39.403 -4.759,8.754 -8.47,17.511 -11.132,26.265 l -53.105,7.992 c -2.093,0.382 -3.9,1.621 -5.424,3.715 C 0.76,182.531 0,184.722 0,187.002 v 63.383 c 0,2.478 0.76,4.709 2.284,6.708 1.524,1.998 3.521,3.195 5.996,3.572 l 52.25,7.71 c 2.663,9.325 6.564,18.743 11.704,28.257 -3.424,4.761 -8.563,11.468 -15.415,20.129 -6.851,8.665 -11.709,14.989 -14.561,18.986 -1.525,2.102 -2.285,4.285 -2.285,6.57 0,2.471 0.666,4.658 1.997,6.561 7.423,10.284 23.125,26.272 47.109,47.969 2.095,2.094 4.475,3.138 7.137,3.138 2.857,0 5.236,-0.852 7.138,-2.563 l 40.259,-30.553 c 7.808,3.997 16.371,7.519 25.697,10.568 l 7.993,52.529 c 0.193,2.471 1.287,4.518 3.283,6.14 1.997,1.622 4.331,2.423 6.995,2.423 h 63.38 c 5.53,0 8.952,-2.662 10.287,-7.994 2.471,-9.514 5.229,-27.213 8.274,-53.098 8.946,-2.858 17.607,-6.476 25.981,-10.855 l 39.402,30.84 c 2.663,1.712 5.141,2.563 7.42,2.563 4.186,0 13.131,-6.752 26.833,-20.27 13.709,-13.511 23.13,-23.79 28.264,-30.837 1.711,-1.902 2.569,-4.09 2.569,-6.561 0,-2.478 -0.947,-4.862 -2.857,-7.139 -13.698,-16.754 -23.883,-29.882 -30.546,-39.402 3.806,-7.043 7.519,-15.701 11.136,-25.98 l 52.817,-7.988 c 2.279,-0.383 4.189,-1.622 5.708,-3.716 1.523,-2.098 2.279,-4.288 2.279,-6.571 v -63.376 c 0.005,-2.474 -0.751,-4.707 -2.278,-6.707 z m -165.304,89.501 c -14.271,14.277 -31.497,21.416 -51.676,21.416 -20.177,0 -37.401,-7.139 -51.678,-21.416 -14.272,-14.271 -21.411,-31.498 -21.411,-51.673 0,-20.177 7.135,-37.401 21.411,-51.678 14.277,-14.272 31.504,-21.411 51.678,-21.411 20.179,0 37.406,7.139 51.676,21.411 14.274,14.277 21.413,31.501 21.413,51.678 0,20.175 -7.138,37.403 -21.413,51.673 z"
         id="path920"
         style="fill:#0dcee5;fill-opacity:1" />
    </g>
    <g
       aria-label="Renan Delgado"
       style="font-style:normal;font-weight:normal;font-size:10.58333302px;line-height:1.25;font-family:sans-serif;letter-spacing:0px;word-spacing:0px;fill:#fffcfc;fill-opacity:1;stroke:none;stroke-width:0.26458332"
       id="text817"
       transform="matrix(0.74791033,0,0,0.74791033,9.7903864,74.309719)">
      <path
         d="m -8.7314307,286.99419 q 0.60325,0 1.0371666,0.17992 0.4339167,0.16933 0.7090834,0.46566 0.28575,0.28575 0.4127499,0.67734 0.1375834,0.39158 0.1375834,0.81491 0,0.33867 -0.084667,0.67734 -0.084667,0.32808 -0.2645833,0.62441 -0.1799167,0.28575 -0.4656667,0.508 -0.28575,0.22225 -0.6984999,0.33867 l 1.6615832,2.8575 h -1.3864166 l -1.6298333,-2.76225 h -1.862666 q -0.179917,0 -0.179917,0.17992 v 2.58233 h -1.248833 v -2.82575 q 0,-0.60325 0.264583,-0.86783 0.264583,-0.26459 0.85725,-0.26459 h 2.7834163 q 0.2645834,0 0.4550834,-0.0847 0.1905,-0.0847 0.3069166,-0.22225 0.1164167,-0.13759 0.1693333,-0.3175 0.0635,-0.17992 0.0635,-0.37042 0,-0.381 -0.2434166,-0.65617 -0.2328333,-0.28575 -0.7514167,-0.28575 h -3.9158333 v -1.24883 z"
         style="font-style:normal;font-variant:normal;font-weight:normal;font-stretch:normal;font-family:Nasalization;-inkscape-font-specification:Nasalization;fill:#fffcfc;fill-opacity:1;stroke-width:0.26458332"
         id="path819"
         inkscape:connector-curvature="0" />
      <path
         d="m -1.813238,288.54994 q 0.99483333,0 1.43933332,0.45508 0.44449998,0.4445 0.44449998,1.25942 0,0.77258 -0.43391665,1.19592 -0.43391665,0.41275 -1.46049995,0.41275 h -2.6564166 v 0.40216 q 0,0.33867 0.1905,0.56092 0.2010833,0.21167 0.66675,0.21167 h 3.41841655 v 1.09008 H -3.6229879 q -0.5291667,0 -0.8995833,-0.13758 -0.3598333,-0.13759 -0.60325,-0.381 -0.2328333,-0.254 -0.3386667,-0.58209 -0.1058333,-0.33866 -0.1058333,-0.74083 v -1.905 q 0,-0.39158 0.1058333,-0.73025 0.1058334,-0.33867 0.3386667,-0.58208 0.2434167,-0.254 0.60325,-0.39159 0.3704166,-0.13758 0.8995833,-0.13758 z m -2.6669999,2.44475 h 2.6246666 q 0.4550833,0 0.635,-0.17992 0.1905,-0.17991 0.1905,-0.48683 0,-0.3175 -0.1905,-0.508 -0.1905,-0.1905 -0.60325,-0.1905 h -1.7991666 q -0.4656667,0 -0.66675,0.22225 -0.1905,0.22225 -0.1905,0.55033 z"
         style="font-style:normal;font-variant:normal;font-weight:normal;font-stretch:normal;font-family:Nasalization;-inkscape-font-specification:Nasalization;fill:#fffcfc;fill-opacity:1;stroke-width:0.26458332"
         id="path821"
         inkscape:connector-curvature="0" />
      <path
         d="m 4.5403994,288.54994 q 1.42875,0 2.1166666,0.64558 0.6985,0.635 0.6985,1.79917 v 3.14325 H 6.2231494 v -3.14325 q 0,-0.66675 -0.4021667,-1.016 -0.3915833,-0.34925 -1.2805833,-0.34925 H 2.7094828 q -0.1375833,0 -0.1375833,0.15875 v 4.34975 H 1.4500662 v -4.72017 q 0,-0.49741 0.1799167,-0.67733 0.1799166,-0.1905 0.6032499,-0.1905 z"
         style="font-style:normal;font-variant:normal;font-weight:normal;font-stretch:normal;font-family:Nasalization;-inkscape-font-specification:Nasalization;fill:#fffcfc;fill-opacity:1;stroke-width:0.26458332"
         id="path823"
         inkscape:connector-curvature="0" />
      <path
         d="m 12.509981,288.54994 q 0.518583,0 0.889,0.13758 0.370416,0.13759 0.60325,0.39159 0.243416,0.24341 0.34925,0.58208 0.105833,0.33867 0.105833,0.73025 v 2.62467 q 0,0.30691 -0.05292,0.51858 -0.04233,0.21167 -0.169333,0.34925 -0.127,0.127 -0.359833,0.1905 -0.22225,0.0635 -0.5715,0.0635 h -2.614083 q -0.9948338,0 -1.4393338,-0.45508 -0.4339166,-0.45509 -0.4339166,-1.24884 0,-0.381 0.09525,-0.67733 0.1058333,-0.29633 0.3280833,-0.49742 0.22225,-0.21166 0.5820833,-0.3175 0.3598338,-0.11641 0.8784168,-0.11641 h 2.656416 v -0.42334 q 0,-0.32808 -0.201083,-0.55033 -0.1905,-0.22225 -0.656167,-0.22225 H 9.1550642 v -1.0795 z m 0.53975,4.49792 q 0.306916,0 0.306916,-0.28575 v -1.04775 h -2.635249 q -0.4445,0 -0.624417,0.17991 -0.1799168,0.16934 -0.1799168,0.47625 0,0.30692 0.1799168,0.49742 0.179917,0.17992 0.60325,0.17992 z"
         style="font-style:normal;font-variant:normal;font-weight:normal;font-stretch:normal;font-family:Nasalization;-inkscape-font-specification:Nasalization;fill:#fffcfc;fill-opacity:1;stroke-width:0.26458332"
         id="path825"
         inkscape:connector-curvature="0" />
      <path
         d="m 19.133823,288.54994 q 1.42875,0 2.116667,0.64558 0.6985,0.635 0.6985,1.79917 v 3.14325 h -1.132417 v -3.14325 q 0,-0.66675 -0.402166,-1.016 -0.391584,-0.34925 -1.280584,-0.34925 h -1.830916 q -0.137584,0 -0.137584,0.15875 v 4.34975 H 16.04349 v -4.72017 q 0,-0.49741 0.179917,-0.67733 0.179916,-0.1905 0.60325,-0.1905 z"
         style="font-style:normal;font-variant:normal;font-weight:normal;font-stretch:normal;font-family:Nasalization;-inkscape-font-specification:Nasalization;fill:#fffcfc;fill-opacity:1;stroke-width:0.26458332"
         id="path827"
         inkscape:connector-curvature="0" />
      <path
         d="m 29.533107,286.99419 q 1.576917,0 2.391833,0.87842 0.8255,0.87841 0.8255,2.69875 0,1.80975 -0.8255,2.68816 -0.814916,0.87842 -2.391833,0.87842 h -2.518833 q -0.592667,0 -0.592667,-0.58208 v -5.97959 q 0,-0.58208 0.592667,-0.58208 z m -1.862667,5.76792 q 0,0.127 0.137584,0.127 h 1.725083 q 1.037167,0 1.502833,-0.55034 0.465667,-0.55033 0.465667,-1.778 0,-1.22766 -0.465667,-1.76741 -0.455083,-0.55034 -1.502833,-0.55034 h -1.725083 q -0.137584,0 -0.137584,0.127 z"
         style="font-style:normal;font-variant:normal;font-weight:normal;font-stretch:normal;font-family:Nasalization;-inkscape-font-specification:Nasalization;fill:#fffcfc;fill-opacity:1;stroke-width:0.26458332"
         id="path829"
         inkscape:connector-curvature="0" />
      <path
         d="m 37.791578,288.54994 q 0.994834,0 1.439334,0.45508 0.4445,0.4445 0.4445,1.25942 0,0.77258 -0.433917,1.19592 -0.433917,0.41275 -1.4605,0.41275 h -2.656416 v 0.40216 q 0,0.33867 0.1905,0.56092 0.201083,0.21167 0.66675,0.21167 h 3.418416 v 1.09008 h -3.418416 q -0.529167,0 -0.899584,-0.13758 -0.359833,-0.13759 -0.60325,-0.381 -0.232833,-0.254 -0.338666,-0.58209 -0.105834,-0.33866 -0.105834,-0.74083 v -1.905 q 0,-0.39158 0.105834,-0.73025 0.105833,-0.33867 0.338666,-0.58208 0.243417,-0.254 0.60325,-0.39159 0.370417,-0.13758 0.899584,-0.13758 z m -2.666999,2.44475 h 2.624666 q 0.455083,0 0.635,-0.17992 0.1905,-0.17991 0.1905,-0.48683 0,-0.3175 -0.1905,-0.508 -0.1905,-0.1905 -0.60325,-0.1905 h -1.799166 q -0.465667,0 -0.66675,0.22225 -0.1905,0.22225 -0.1905,0.55033 z"
         style="font-style:normal;font-variant:normal;font-weight:normal;font-stretch:normal;font-family:Nasalization;-inkscape-font-specification:Nasalization;fill:#fffcfc;fill-opacity:1;stroke-width:0.26458332"
         id="path831"
         inkscape:connector-curvature="0" />
      <path
         d="m 42.176718,286.12636 v 8.01158 h -1.121833 v -8.01158 z"
         style="font-style:normal;font-variant:normal;font-weight:normal;font-stretch:normal;font-family:Nasalization;-inkscape-font-specification:Nasalization;fill:#fffcfc;fill-opacity:1;stroke-width:0.26458332"
         id="path833"
         inkscape:connector-curvature="0" />
      <path
         d="m 47.487567,288.54994 q 1.005416,0 1.524,0.59267 0.529166,0.58208 0.529166,1.79916 v 3.21734 q 0,0.59266 -0.116416,1.016 -0.105834,0.42333 -0.359834,0.68791 -0.243416,0.26459 -0.656166,0.381 -0.402167,0.127 -0.98425,0.127 H 44.1009 v -1.0795 h 3.196167 q 0.624416,0 0.867833,-0.26458 0.243417,-0.26458 0.243417,-0.86783 v -0.254 H 45.9424 q -1.121833,0 -1.778,-0.65617 -0.645583,-0.66675 -0.645583,-2.032 0,-1.35467 0.645583,-2.01083 0.656167,-0.65617 1.778,-0.65617 z m -2.836334,2.70933 q 0,0.85725 0.328084,1.24884 0.338666,0.381 1.068916,0.381 h 2.360084 v -1.95792 q 0,-0.68792 -0.28575,-0.99483 -0.28575,-0.30692 -0.963084,-0.30692 h -1.11125 q -0.73025,0 -1.068916,0.39158 -0.328084,0.381 -0.328084,1.23825 z"
         style="font-style:normal;font-variant:normal;font-weight:normal;font-stretch:normal;font-family:Nasalization;-inkscape-font-specification:Nasalization;fill:#fffcfc;fill-opacity:1;stroke-width:0.26458332"
         id="path835"
         inkscape:connector-curvature="0" />
      <path
         d="m 54.67795,288.54994 q 0.518583,0 0.889,0.13758 0.370416,0.13759 0.603249,0.39159 0.243417,0.24341 0.34925,0.58208 0.105834,0.33867 0.105834,0.73025 v 2.62467 q 0,0.30691 -0.05292,0.51858 -0.04233,0.21167 -0.169333,0.34925 -0.127,0.127 -0.359834,0.1905 -0.22225,0.0635 -0.571499,0.0635 h -2.614084 q -0.994833,0 -1.439333,-0.45508 -0.433917,-0.45509 -0.433917,-1.24884 0,-0.381 0.09525,-0.67733 0.105834,-0.29633 0.328084,-0.49742 0.22225,-0.21166 0.582083,-0.3175 0.359833,-0.11641 0.878417,-0.11641 h 2.656416 v -0.42334 q 0,-0.32808 -0.201083,-0.55033 -0.1905,-0.22225 -0.656167,-0.22225 H 51.32303 v -1.0795 z m 0.53975,4.49792 q 0.306916,0 0.306916,-0.28575 v -1.04775 h -2.63525 q -0.4445,0 -0.624416,0.17991 -0.179917,0.16934 -0.179917,0.47625 0,0.30692 0.179917,0.49742 0.179916,0.17992 0.60325,0.17992 z"
         style="font-style:normal;font-variant:normal;font-weight:normal;font-stretch:normal;font-family:Nasalization;-inkscape-font-specification:Nasalization;fill:#fffcfc;fill-opacity:1;stroke-width:0.26458332"
         id="path837"
         inkscape:connector-curvature="0" />
      <path
         d="m 63.968788,286.12636 v 5.61975 q 0,1.21708 -0.529167,1.80975 -0.518583,0.58208 -1.523999,0.58208 h -1.545167 q -1.121833,0 -1.778,-0.68792 -0.645583,-0.68791 -0.645583,-2.10608 0,-1.41817 0.645583,-2.10608 0.656167,-0.68792 1.778,-0.68792 h 2.465916 v -2.42358 z m -2.38125,6.9215 q 0.677334,0 0.963084,-0.3175 0.285749,-0.3175 0.285749,-1.03717 v -2.06375 h -2.360083 q -0.73025,0 -1.068916,0.40217 -0.328084,0.40216 -0.328084,1.31233 0,0.91017 0.328084,1.31233 0.338666,0.39159 1.068916,0.39159 z"
         style="font-style:normal;font-variant:normal;font-weight:normal;font-stretch:normal;font-family:Nasalization;-inkscape-font-specification:Nasalization;fill:#fffcfc;fill-opacity:1;stroke-width:0.26458332"
         id="path839"
         inkscape:connector-curvature="0" />
      <path
         d="m 68.903931,288.54994 q 1.11125,0 1.767417,0.6985 0.656167,0.68792 0.656167,2.0955 0,1.41817 -0.656167,2.10608 -0.656167,0.68792 -1.767417,0.68792 h -1.17475 q -1.121833,0 -1.778,-0.68792 -0.645583,-0.68791 -0.645583,-2.10608 0,-1.41817 0.645583,-2.10608 0.656167,-0.68792 1.778,-0.68792 z m -1.068916,1.0795 q -0.73025,0 -1.068917,0.40217 -0.328083,0.40216 -0.328083,1.31233 0,0.91017 0.328083,1.31233 0.338667,0.39159 1.068917,0.39159 h 0.963083 q 0.73025,0 1.058333,-0.39159 0.338667,-0.40216 0.338667,-1.31233 0,-0.91017 -0.338667,-1.31233 -0.328083,-0.40217 -1.058333,-0.40217 z"
         style="font-style:normal;font-variant:normal;font-weight:normal;font-stretch:normal;font-family:Nasalization;-inkscape-font-specification:Nasalization;fill:#fffcfc;fill-opacity:1;stroke-width:0.26458332"
         id="path841"
         inkscape:connector-curvature="0" />
    </g>
  </g>
</svg>
